<svg width="1398" height="500" viewBox="0 0 1398 500" fill="none" xmlns="http://www.w3.org/2000/svg">
<g clip-path="url(#clip0_1716_22)">
<rect width="500" height="500" rx="132" fill="white"/>
<path d="M105.354 392.519C101.512 395.684 97.7511 398.997 94.0786 402.457L93.935 402.314C97.3953 398.641 100.708 394.88 103.873 391.039L105.354 392.519ZM130.957 374.282C126.622 376.93 122.357 379.739 118.171 382.709L113.682 378.22C116.652 374.035 119.462 369.77 122.11 365.435L130.957 374.282ZM159.906 359.39C155.027 361.463 150.207 363.718 145.456 366.153L130.239 350.937C132.674 346.185 134.928 341.365 137.002 336.486L159.906 359.39ZM192.722 348.366C187.205 349.754 181.731 351.356 176.313 353.17L143.222 320.079C145.036 314.66 146.638 309.186 148.026 303.669L192.722 348.366ZM230.427 342.23C224.087 342.715 217.762 343.467 211.474 344.49L151.902 284.918C152.924 278.629 153.677 272.305 154.161 265.964L230.427 342.23ZM275.325 343.287C267.729 342.345 260.094 341.792 252.452 341.627L154.764 243.94C154.6 236.298 154.047 228.663 153.105 221.067L275.325 343.287ZM335.249 359.371C324.807 354.936 314.097 351.331 303.219 348.554L147.838 193.173C145.061 182.295 141.455 171.585 137.021 161.143L335.249 359.371ZM405.993 90.3988C318.516 177.876 318.516 319.705 405.993 407.183C403.646 404.835 401.259 402.552 398.836 400.33L96.0611 97.5554C93.8401 95.1323 91.5566 92.7457 89.2096 90.3988C176.687 177.876 318.516 177.876 405.993 90.3988Z" fill="#0B0B0D"/>
</g>
<path d="M742.94 387.56C729.007 387.56 716.213 385.913 704.56 382.62C693.16 379.327 683.027 374.767 674.16 368.94C665.547 363.113 658.327 356.653 652.5 349.56C646.927 342.213 643 334.613 640.72 326.76L684.04 313.46C687.333 322.833 693.793 331.067 703.42 338.16C713.047 345.253 724.953 348.927 739.14 349.18C755.607 349.18 768.653 345.76 778.28 338.92C787.907 332.08 792.72 323.087 792.72 311.94C792.72 301.807 788.667 293.573 780.56 287.24C772.453 280.653 761.56 275.587 747.88 272.04L715.2 263.68C702.787 260.387 691.513 255.573 681.38 249.24C671.5 242.907 663.647 234.927 657.82 225.3C652.247 215.673 649.46 204.273 649.46 191.1C649.46 166.273 657.567 147.02 673.78 133.34C689.993 119.407 713.173 112.44 743.32 112.44C760.293 112.44 775.113 115.1 787.78 120.42C800.7 125.487 811.34 132.58 819.7 141.7C828.06 150.567 834.267 160.7 838.32 172.1L795.76 185.78C791.96 175.647 785.373 167.287 776 160.7C766.627 154.113 754.973 150.82 741.04 150.82C726.6 150.82 715.2 154.24 706.84 161.08C698.733 167.92 694.68 177.42 694.68 189.58C694.68 199.46 697.847 207.187 704.18 212.76C710.767 218.08 719.633 222.133 730.78 224.92L763.46 232.9C787.273 238.727 805.767 248.733 818.94 262.92C832.113 277.107 838.7 292.813 838.7 310.04C838.7 325.24 835.027 338.667 827.68 350.32C820.333 361.973 809.44 371.093 795 377.68C780.813 384.267 763.46 387.56 742.94 387.56ZM951.314 387.56C931.3 387.56 915.974 382.62 905.334 372.74C894.947 362.607 889.754 348.167 889.754 329.42V133.72H931.934V321.44C931.934 330.307 933.96 337.02 938.014 341.58C942.32 346.14 948.527 348.42 956.634 348.42C959.167 348.42 961.954 347.913 964.994 346.9C968.034 345.887 971.454 343.987 975.254 341.2L990.834 373.5C984.247 378.06 977.66 381.48 971.074 383.76C964.487 386.293 957.9 387.56 951.314 387.56ZM858.214 229.48V193H983.234V229.48H858.214ZM1134.38 383L1132.48 347.28V285.34C1132.48 272.42 1131.08 261.653 1128.3 253.04C1125.76 244.173 1121.46 237.46 1115.38 232.9C1109.55 228.087 1101.7 225.68 1091.82 225.68C1082.7 225.68 1074.72 227.58 1067.88 231.38C1061.04 235.18 1055.21 241.133 1050.4 249.24L1013.16 235.56C1017.21 227.2 1022.53 219.473 1029.12 212.38C1035.96 205.033 1044.44 199.207 1054.58 194.9C1064.96 190.593 1077.38 188.44 1091.82 188.44C1110.31 188.44 1125.76 192.113 1138.18 199.46C1150.59 206.553 1159.71 216.813 1165.54 230.24C1171.62 243.667 1174.66 259.88 1174.66 278.88L1173.52 383H1134.38ZM1079.66 387.56C1056.86 387.56 1039.12 382.493 1026.46 372.36C1014.04 362.227 1007.84 347.913 1007.84 329.42C1007.84 309.66 1014.42 294.587 1027.6 284.2C1041.02 273.813 1059.64 268.62 1083.46 268.62H1134.38V301.3H1097.14C1080.16 301.3 1068.26 303.707 1061.42 308.52C1054.58 313.08 1051.16 319.667 1051.16 328.28C1051.16 335.627 1054.07 341.453 1059.9 345.76C1065.98 349.813 1074.34 351.84 1084.98 351.84C1094.6 351.84 1102.96 349.687 1110.06 345.38C1117.15 341.073 1122.6 335.373 1126.4 328.28C1130.45 321.187 1132.48 313.207 1132.48 304.34H1145.02C1145.02 330.18 1139.82 350.573 1129.44 365.52C1119.05 380.213 1102.46 387.56 1079.66 387.56ZM1302.87 387.56C1283.37 387.56 1266.14 383.38 1251.19 375.02C1236.25 366.407 1224.47 354.627 1215.85 339.68C1207.49 324.733 1203.31 307.507 1203.31 288C1203.31 268.493 1207.49 251.267 1215.85 236.32C1224.47 221.373 1236.12 209.72 1250.81 201.36C1265.76 192.747 1282.86 188.44 1302.11 188.44C1320.86 188.44 1337.83 193 1353.03 202.12C1368.23 210.987 1379.51 223.78 1386.85 240.5L1347.33 255.7C1343.28 247.34 1337.07 240.627 1328.71 235.56C1320.35 230.493 1310.85 227.96 1300.21 227.96C1289.83 227.96 1280.58 230.62 1272.47 235.94C1264.37 241.007 1258.03 248.1 1253.47 257.22C1248.91 266.087 1246.63 276.347 1246.63 288C1246.63 299.653 1248.91 310.04 1253.47 319.16C1258.29 328.027 1264.75 335.12 1272.85 340.44C1281.21 345.507 1290.59 348.04 1300.97 348.04C1311.61 348.04 1321.11 345.38 1329.47 340.06C1337.83 334.487 1344.04 327.013 1348.09 317.64L1387.61 332.84C1380.27 350.067 1368.99 363.493 1353.79 373.12C1338.85 382.747 1321.87 387.56 1302.87 387.56Z" fill="white"/>
<defs>
<clipPath id="clip0_1716_22">
<rect width="500" height="500" rx="132" fill="white"/>
</clipPath>
</defs>
</svg>
