<svg width="500" height="500" viewBox="0 0 500 500" fill="none" xmlns="http://www.w3.org/2000/svg">
<g clip-path="url(#clip0_1629_17)">
<rect width="500" height="500" rx="80" fill="white"/>
<path d="M105.354 392.519C101.512 395.684 97.7511 398.997 94.0786 402.457L93.935 402.314C97.3953 398.641 100.708 394.88 103.873 391.039L105.354 392.519ZM130.957 374.282C126.622 376.93 122.357 379.739 118.171 382.709L113.682 378.22C116.652 374.035 119.462 369.77 122.11 365.435L130.957 374.282ZM159.906 359.39C155.027 361.463 150.207 363.718 145.456 366.153L130.239 350.937C132.674 346.185 134.928 341.365 137.002 336.486L159.906 359.39ZM192.722 348.366C187.205 349.754 181.731 351.356 176.313 353.17L143.222 320.079C145.036 314.66 146.638 309.186 148.026 303.669L192.722 348.366ZM230.427 342.23C224.087 342.715 217.762 343.467 211.474 344.49L151.902 284.918C152.924 278.629 153.677 272.305 154.161 265.964L230.427 342.23ZM275.325 343.287C267.729 342.345 260.094 341.792 252.452 341.627L154.764 243.94C154.6 236.298 154.047 228.663 153.105 221.067L275.325 343.287ZM335.249 359.371C324.807 354.936 314.097 351.331 303.219 348.554L147.838 193.173C145.061 182.295 141.455 171.585 137.021 161.143L335.249 359.371ZM405.993 90.3988C318.516 177.876 318.516 319.705 405.993 407.183C403.646 404.835 401.259 402.552 398.836 400.33L96.0611 97.5554C93.8401 95.1323 91.5566 92.7457 89.2096 90.3988C176.687 177.876 318.516 177.876 405.993 90.3988Z" fill="#0B0B0D"/>
</g>
<defs>
<clipPath id="clip0_1629_17">
<rect width="500" height="500" rx="80" fill="white"/>
</clipPath>
</defs>
</svg>
